# xmcd
#
# Track frame offsets:
#	150
#	13858
#	33693
#	42208
#	53989
#	60949
#	73174
#	89399
#	101515
#	110447
#	124854
#	133522
#	149374
#	161126
#	181944
#	191275
#	201430
#	210976
#	221143
#	245496
#	256641
#	268998
#	276731
#	289999
#	298997
#	309430
#
# Disc length: 4282 seconds
#
# Revision: 1
# Processed by: cddbd v1.5.2PL0 Copyright (c) Steve Scherf et al.
# Submitted via: audiograbber 1.83.01
#
DISCID=a210b81a
DTITLE=Various Artist - A vén cigány
DYEAR=2002
DGENRE=
TTITLE0=Leszállt a csendes éj
TTITLE1=Ha én gazdag lennék
TTITLE2=Jó estét kivánok
TTITLE3=Valahol egy kis faluban
TTITLE4=Õszhajú asszony
TTITLE5=Szép asszonynak kurizálok
TTITLE6=Tiszta fehér oltár
TTITLE7=Énnekem a boldogságban
TTITLE8=Szép a rózsám
TTITLE9=Annak, aki feledni tud
TTITLE10=Kimegyek a budapesti vasútállomásra
TTITLE11=Nézek a nagy messzeségbe
TTITLE12=Sárgul már a kukoricaszár
TTITLE13=A vén cigány
TTITLE14=Mondja meg annak a kislánynak 
TTITLE15=Visszanézek életemre
TTITLE16=A szögedi kislány, de kényes
TTITLE17=Ráérünk még, korán van hazamenni
TTITLE18=Fecskemadár, fecskemadár
TTITLE19=Ledûlött, ledûlött a szénaboglya teteje
TTITLE20=Ne gondold, hogy az õszi szél
TTITLE21=Hull az esõ, nagy a sár
TTITLE22=Volt nekem egy daruszõrõ paripám
TTITLE23=Mikor én a dalos madárt hallgatom
TTITLE24=Tudod-e, hogy mért halnak meg
TTITLE25=Búbánatos annak az élete
EXTD=Mulass Velunk! 16
EXTT0=
EXTT1=
EXTT2=
EXTT3=
EXTT4=
EXTT5=
EXTT6=
EXTT7=
EXTT8=
EXTT9=
EXTT10=
EXTT11=
EXTT12=
EXTT13=
EXTT14=
EXTT15=
EXTT16=
EXTT17=
EXTT18=
EXTT19=
EXTT20=
EXTT21=
EXTT22=
EXTT23=
EXTT24=
EXTT25=
PLAYORDER=
